<svg xmlns="http://www.w3.org/2000/svg" width="758" height="366" viewBox="80 0 758 366"><path fill="#e8ebf0" d="M185.2 276.76H654v50.2c0 6.17-5 11.16-11.16 11.16h-446.5a11.15 11.15 0 0 1-11.16-11.16v-39.05l.01-11.15z"/><path fill="#e8ebf0" d="M365.82 338.45s-3.13 43.51-7.03 43.29c0 0-22.43 3.24-19.97 4.13 0 0-2.12 1.34 9.04 1.56H491.1s9.37.34 8.04-1.78c0 0-3.7-2.11-20.32-3.9 0 0-3.12 1.66-6.58-43.63z"/><path fill="#d8dbe1" d="M365.8 338.12h106.45l.45 9.05H365.14z"/><path fill="#474e5d" d="M196.33.5h446.51C649 .5 654 5.5 654 11.66v283.17H185.2s-.02-4.99-.02-11.16V11.66c0-6.16 5-11.16 11.15-11.16z"/><path fill="#70c6eb" d="M205 276V19h429v257z"/><path fill="#a5a5a5" d="M419.92 6.52a3.12 3.12 0 1 1 0 6.25 3.12 3.12 0 0 1 0-6.25z"/><path fill="#474e5d" d="M419.48 304.2a11.16 11.16 0 1 1-.01 22.32 11.16 11.16 0 0 1 0-22.32zM48.43 203.08H345.9c5.7 0 10.33 4.63 10.33 10.34V412.7c0 5.71-4.62 10.34-10.33 10.34H48.43c-5.71 0-10.34-4.63-10.34-10.34V213.42c0-5.71 4.63-10.34 10.34-10.34z"/><path fill="#a5a4a4" d="M197.06 207.93a1.86 1.86 0 1 1 0 3.72 1.86 1.86 0 0 1 0-3.72z"/><path fill="#e8ebf0" d="M.89 415.8S.4 428 38.09 428h317.95s37-.43 37-12.2z"/><path fill="#c0c2c6" d="M169.78 415.8s.67 4.24 3.98 4.24h46.77s3.3-.41 4.08-4.24z"/><path fill="#f79231" d="M48 401V215h298v186z"/><path fill="#474e5d" d="M540.96 165.6h156.97a7.83 7.83 0 0 1 7.82 7.82v229.02c0 4.32-3.5 7.82-7.82 7.82H540.96a7.82 7.82 0 0 1-7.82-7.82V173.42c0-4.31 3.5-7.82 7.82-7.82z"/><path fill="#fee9a3" d="M544 388V188h151v200z"/><path fill="#a5a5a5" d="M619.34 175.32a1.4 1.4 0 0 1 0 2.79 1.4 1.4 0 0 1 0-2.79z"/><path fill="#f6f6f6" d="M619.4 393.83a5.8 5.8 0 1 1 0 11.6 5.8 5.8 0 0 1 0-11.6z"/><path fill="#474e5d" d="M724.49 215.6h107.5c2.96 0 5.35 2.4 5.35 5.36v156.83c0 2.96-2.4 5.35-5.35 5.35h-107.5a5.35 5.35 0 0 1-5.36-5.35V220.96c0-2.96 2.4-5.36 5.36-5.36z"/><path fill="#39dcc9" d="M727 368V231h103v137z"/><path fill="#a5a5a5" d="M778.17 222.26a.95.95 0 1 1 0 1.9.95.95 0 1 1 0-1.9z"/><path fill="#f6f6f6" d="M778.2 371.9a3.97 3.97 0 1 1 .02 7.93 3.97 3.97 0 0 1-.01-7.93z"/><path fill="#474e5d" d="M680.14 262.27h52.93c5.7 0 10.33 4.63 10.33 10.33v135.04c0 5.7-4.63 10.33-10.33 10.33h-52.93c-5.7 0-10.33-4.63-10.33-10.33V272.6c0-5.7 4.63-10.33 10.33-10.33z"/><path fill="#a5a4a4" d="M706.54 268.6c.75 0 1.36.61 1.36 1.36 0 .75-.61 1.35-1.36 1.35-.75 0-1.35-.6-1.35-1.35 0-.75.6-1.36 1.35-1.36zm-5.55 5.81h10.97a1.36 1.36 0 0 1 0 2.71H701a1.36 1.36 0 0 1 0-2.71z"/><path fill="#f6f6f6" d="M706.48 400.03a6.71 6.71 0 1 1 0 13.43 6.71 6.71 0 0 1 0-13.43z"/><path fill="#f3787a" d="M674 397V284h65v113z"/></svg>