<svg xmlns="http://www.w3.org/2000/svg" width="228" height="268" viewBox="0 0 228 268"><path fill="#474e5d" d="M31.92.44h163.51a31.9 31.9 0 0 1 31.9 31.9v417.17a31.9 31.9 0 0 1-31.9 31.9H31.92a31.9 31.9 0 0 1-31.9-31.9V32.35A31.9 31.9 0 0 1 31.91.45z"/><path fill="#a5a4a4" d="M113.48 19.99a4.19 4.19 0 1 1 0 8.38 4.19 4.19 0 0 1 0-8.38zM96.33 37.93h33.9a4.19 4.19 0 1 1 0 8.38h-33.9a4.19 4.19 0 0 1 0-8.38z"/><path fill="#f6f6f6" d="M113.28 426a20.74 20.74 0 1 1 0 41.48 20.74 20.74 0 0 1 0-41.47z"/><path fill="#f3787a" d="M14 416V67h199v349z"/></svg>